<mxfile host="app.diagrams.net" modified="2023-05-26T09:07:44.733Z" agent="Mozilla/5.0 (Windows NT 10.0; Win64; x64) AppleWebKit/537.36 (KHTML, like Gecko) Chrome/113.0.0.0 Safari/537.36" etag="5235QJDpwwCHMW52P_sP" version="21.1.2" type="google">
  <diagram name="Trang-1" id="fohrESQI9anB7jdglD0q">
    <mxGraphModel grid="1" page="1" gridSize="10" guides="1" tooltips="1" connect="1" arrows="1" fold="1" pageScale="1" pageWidth="827" pageHeight="1169" math="0" shadow="0">
      <root>
        <mxCell id="0" />
        <mxCell id="1" parent="0" />
        <mxCell id="jKazzLGA4t1OIknXhIyh-10" value="" style="group" vertex="1" connectable="0" parent="1">
          <mxGeometry x="-750" y="1020" width="310" height="70" as="geometry" />
        </mxCell>
        <mxCell id="jKazzLGA4t1OIknXhIyh-1" value="&lt;b&gt;&lt;u&gt;OfficerID&lt;/u&gt;&lt;/b&gt;" style="whiteSpace=wrap;html=1;align=center;" vertex="1" parent="jKazzLGA4t1OIknXhIyh-10">
          <mxGeometry x="10" y="30" width="100" height="40" as="geometry" />
        </mxCell>
        <mxCell id="jKazzLGA4t1OIknXhIyh-2" value="Name" style="whiteSpace=wrap;html=1;" vertex="1" parent="jKazzLGA4t1OIknXhIyh-10">
          <mxGeometry x="110" y="30" width="100" height="40" as="geometry" />
        </mxCell>
        <mxCell id="jKazzLGA4t1OIknXhIyh-6" value="YearsEmp" style="whiteSpace=wrap;html=1;" vertex="1" parent="jKazzLGA4t1OIknXhIyh-10">
          <mxGeometry x="210" y="30" width="100" height="40" as="geometry" />
        </mxCell>
        <mxCell id="jKazzLGA4t1OIknXhIyh-8" value="&lt;b&gt;&lt;font style=&quot;font-size: 14px;&quot;&gt;Officer&lt;/font&gt;&lt;/b&gt;" style="text;html=1;align=center;verticalAlign=middle;resizable=0;points=[];autosize=1;strokeColor=none;fillColor=none;" vertex="1" parent="jKazzLGA4t1OIknXhIyh-10">
          <mxGeometry x="10" width="70" height="30" as="geometry" />
        </mxCell>
        <mxCell id="jKazzLGA4t1OIknXhIyh-43" value="" style="group;fontFamily=Helvetica;" vertex="1" connectable="0" parent="1">
          <mxGeometry x="-740" y="910" width="900" height="70" as="geometry" />
        </mxCell>
        <mxCell id="jKazzLGA4t1OIknXhIyh-23" value="&lt;div style=&quot;color: rgb(33, 33, 33); background-color: rgb(255, 255, 254); line-height: 16px;&quot;&gt;&lt;b&gt;&lt;u&gt;ID&lt;/u&gt;&lt;/b&gt;&lt;/div&gt;" style="whiteSpace=wrap;html=1;align=center;fontFamily=Helvetica;" vertex="1" parent="jKazzLGA4t1OIknXhIyh-43">
          <mxGeometry y="30" width="100" height="40" as="geometry" />
        </mxCell>
        <mxCell id="jKazzLGA4t1OIknXhIyh-24" value="&lt;div style=&quot;color: rgb(33, 33, 33); background-color: rgb(255, 255, 254); line-height: 16px;&quot;&gt;&lt;div style=&quot;line-height: 16px;&quot;&gt;NRIC&lt;/div&gt;&lt;/div&gt;" style="whiteSpace=wrap;html=1;align=center;fontFamily=Helvetica;" vertex="1" parent="jKazzLGA4t1OIknXhIyh-43">
          <mxGeometry x="100" y="30" width="100" height="40" as="geometry" />
        </mxCell>
        <mxCell id="jKazzLGA4t1OIknXhIyh-25" value="&lt;div style=&quot;color: rgb(33, 33, 33); background-color: rgb(255, 255, 254); line-height: 16px;&quot;&gt;&lt;div style=&quot;line-height: 16px;&quot;&gt;&lt;div style=&quot;line-height: 16px;&quot;&gt;Time&lt;/div&gt;&lt;/div&gt;&lt;/div&gt;" style="whiteSpace=wrap;html=1;align=center;fontFamily=Helvetica;" vertex="1" parent="jKazzLGA4t1OIknXhIyh-43">
          <mxGeometry x="200" y="30" width="100" height="40" as="geometry" />
        </mxCell>
        <mxCell id="jKazzLGA4t1OIknXhIyh-26" value="&lt;div style=&quot;color: rgb(33, 33, 33); background-color: rgb(255, 255, 254); line-height: 16px;&quot;&gt;&lt;div style=&quot;line-height: 16px;&quot;&gt;&lt;div style=&quot;line-height: 16px;&quot;&gt;&lt;div style=&quot;line-height: 16px;&quot;&gt;Penalty&lt;/div&gt;&lt;/div&gt;&lt;/div&gt;&lt;/div&gt;" style="whiteSpace=wrap;html=1;align=center;fontFamily=Helvetica;" vertex="1" parent="jKazzLGA4t1OIknXhIyh-43">
          <mxGeometry x="300" y="30" width="100" height="40" as="geometry" />
        </mxCell>
        <mxCell id="jKazzLGA4t1OIknXhIyh-64" style="edgeStyle=orthogonalEdgeStyle;rounded=0;orthogonalLoop=1;jettySize=auto;html=1;entryX=0.5;entryY=1;entryDx=0;entryDy=0;" edge="1" parent="jKazzLGA4t1OIknXhIyh-43" source="jKazzLGA4t1OIknXhIyh-27" target="jKazzLGA4t1OIknXhIyh-26">
          <mxGeometry relative="1" as="geometry">
            <Array as="points">
              <mxPoint x="450" y="100" />
              <mxPoint x="350" y="100" />
            </Array>
          </mxGeometry>
        </mxCell>
        <mxCell id="jKazzLGA4t1OIknXhIyh-27" value="&lt;div style=&quot;color: rgb(33, 33, 33); background-color: rgb(255, 255, 254); line-height: 16px;&quot;&gt;&lt;div style=&quot;line-height: 16px;&quot;&gt;&lt;div style=&quot;line-height: 16px;&quot;&gt;&lt;div style=&quot;line-height: 16px;&quot;&gt;&lt;div style=&quot;line-height: 16px;&quot;&gt;Paycard&lt;/div&gt;&lt;/div&gt;&lt;/div&gt;&lt;/div&gt;&lt;/div&gt;" style="whiteSpace=wrap;html=1;align=center;fontFamily=Helvetica;" vertex="1" parent="jKazzLGA4t1OIknXhIyh-43">
          <mxGeometry x="400" y="30" width="100" height="40" as="geometry" />
        </mxCell>
        <mxCell id="jKazzLGA4t1OIknXhIyh-28" value="&lt;div style=&quot;color: rgb(33, 33, 33); background-color: rgb(255, 255, 254); line-height: 16px;&quot;&gt;&lt;div style=&quot;line-height: 16px;&quot;&gt;&lt;div style=&quot;line-height: 16px;&quot;&gt;&lt;div style=&quot;line-height: 16px;&quot;&gt;&lt;div style=&quot;line-height: 16px;&quot;&gt;&lt;div style=&quot;line-height: 16px;&quot;&gt;SID&lt;/div&gt;&lt;/div&gt;&lt;/div&gt;&lt;/div&gt;&lt;/div&gt;&lt;/div&gt;" style="whiteSpace=wrap;html=1;align=center;fontFamily=Helvetica;" vertex="1" parent="jKazzLGA4t1OIknXhIyh-43">
          <mxGeometry x="500" y="30" width="100" height="40" as="geometry" />
        </mxCell>
        <mxCell id="jKazzLGA4t1OIknXhIyh-29" value="&lt;b&gt;&lt;font style=&quot;font-size: 14px;&quot;&gt;Offence&lt;/font&gt;&lt;/b&gt;" style="text;html=1;align=center;verticalAlign=middle;resizable=0;points=[];autosize=1;strokeColor=none;fillColor=none;" vertex="1" parent="jKazzLGA4t1OIknXhIyh-43">
          <mxGeometry width="80" height="30" as="geometry" />
        </mxCell>
        <mxCell id="jKazzLGA4t1OIknXhIyh-30" value="&lt;div style=&quot;color: rgb(33, 33, 33); background-color: rgb(255, 255, 254); line-height: 16px;&quot;&gt;&lt;div style=&quot;line-height: 16px;&quot;&gt;&lt;div style=&quot;line-height: 16px;&quot;&gt;&lt;div style=&quot;line-height: 16px;&quot;&gt;&lt;div style=&quot;line-height: 16px;&quot;&gt;&lt;div style=&quot;line-height: 16px;&quot;&gt;&lt;div style=&quot;line-height: 16px;&quot;&gt;Sdate&lt;/div&gt;&lt;/div&gt;&lt;/div&gt;&lt;/div&gt;&lt;/div&gt;&lt;/div&gt;&lt;/div&gt;" style="whiteSpace=wrap;html=1;align=center;fontFamily=Helvetica;" vertex="1" parent="jKazzLGA4t1OIknXhIyh-43">
          <mxGeometry x="600" y="30" width="100" height="40" as="geometry" />
        </mxCell>
        <mxCell id="jKazzLGA4t1OIknXhIyh-31" value="&lt;div style=&quot;color: rgb(33, 33, 33); background-color: rgb(255, 255, 254); line-height: 16px;&quot;&gt;&lt;div style=&quot;line-height: 16px;&quot;&gt;&lt;div style=&quot;line-height: 16px;&quot;&gt;&lt;div style=&quot;line-height: 16px;&quot;&gt;&lt;div style=&quot;line-height: 16px;&quot;&gt;&lt;div style=&quot;line-height: 16px;&quot;&gt;&lt;div style=&quot;line-height: 16px;&quot;&gt;&lt;div style=&quot;line-height: 16px;&quot;&gt;Stime&lt;/div&gt;&lt;/div&gt;&lt;/div&gt;&lt;/div&gt;&lt;/div&gt;&lt;/div&gt;&lt;/div&gt;&lt;/div&gt;" style="whiteSpace=wrap;html=1;align=center;fontFamily=Helvetica;" vertex="1" parent="jKazzLGA4t1OIknXhIyh-43">
          <mxGeometry x="700" y="30" width="100" height="40" as="geometry" />
        </mxCell>
        <mxCell id="jKazzLGA4t1OIknXhIyh-32" value="&lt;div style=&quot;color: rgb(33, 33, 33); background-color: rgb(255, 255, 254); line-height: 16px;&quot;&gt;&lt;div style=&quot;line-height: 16px;&quot;&gt;&lt;div style=&quot;line-height: 16px;&quot;&gt;&lt;div style=&quot;line-height: 16px;&quot;&gt;&lt;div style=&quot;line-height: 16px;&quot;&gt;&lt;div style=&quot;line-height: 16px;&quot;&gt;&lt;div style=&quot;line-height: 16px;&quot;&gt;&lt;div style=&quot;line-height: 16px;&quot;&gt;&lt;div style=&quot;line-height: 16px;&quot;&gt;OID&lt;/div&gt;&lt;/div&gt;&lt;/div&gt;&lt;/div&gt;&lt;/div&gt;&lt;/div&gt;&lt;/div&gt;&lt;/div&gt;&lt;/div&gt;" style="whiteSpace=wrap;html=1;align=center;fontFamily=Helvetica;" vertex="1" parent="jKazzLGA4t1OIknXhIyh-43">
          <mxGeometry x="800" y="30" width="100" height="40" as="geometry" />
        </mxCell>
        <mxCell id="jKazzLGA4t1OIknXhIyh-54" value="" style="group" vertex="1" connectable="0" parent="1">
          <mxGeometry x="-740" y="1280" width="300" height="70" as="geometry" />
        </mxCell>
        <mxCell id="jKazzLGA4t1OIknXhIyh-39" value="&lt;b&gt;&lt;u&gt;PlateNo&lt;/u&gt;&lt;/b&gt;" style="whiteSpace=wrap;html=1;align=center;" vertex="1" parent="jKazzLGA4t1OIknXhIyh-54">
          <mxGeometry y="30" width="100" height="40" as="geometry" />
        </mxCell>
        <mxCell id="jKazzLGA4t1OIknXhIyh-40" value="FuelType" style="whiteSpace=wrap;html=1;align=center;" vertex="1" parent="jKazzLGA4t1OIknXhIyh-54">
          <mxGeometry x="100" y="30" width="100" height="40" as="geometry" />
        </mxCell>
        <mxCell id="jKazzLGA4t1OIknXhIyh-41" value="Capacity" style="whiteSpace=wrap;html=1;align=center;" vertex="1" parent="jKazzLGA4t1OIknXhIyh-54">
          <mxGeometry x="200" y="30" width="100" height="40" as="geometry" />
        </mxCell>
        <mxCell id="jKazzLGA4t1OIknXhIyh-42" value="&lt;b&gt;&lt;font style=&quot;font-size: 14px;&quot;&gt;Bus&lt;/font&gt;&lt;/b&gt;" style="text;html=1;align=center;verticalAlign=middle;resizable=0;points=[];autosize=1;strokeColor=none;fillColor=none;" vertex="1" parent="jKazzLGA4t1OIknXhIyh-54">
          <mxGeometry width="50" height="30" as="geometry" />
        </mxCell>
        <mxCell id="jKazzLGA4t1OIknXhIyh-55" value="" style="group" vertex="1" connectable="0" parent="1">
          <mxGeometry x="-740" y="1400" width="500" height="70" as="geometry" />
        </mxCell>
        <mxCell id="jKazzLGA4t1OIknXhIyh-33" value="&lt;b&gt;&lt;u&gt;DID&lt;/u&gt;&lt;/b&gt;" style="whiteSpace=wrap;html=1;align=center;" vertex="1" parent="jKazzLGA4t1OIknXhIyh-55">
          <mxGeometry y="50" width="100" height="40" as="geometry" />
        </mxCell>
        <mxCell id="jKazzLGA4t1OIknXhIyh-34" value="NRIC" style="whiteSpace=wrap;html=1;align=center;" vertex="1" parent="jKazzLGA4t1OIknXhIyh-55">
          <mxGeometry x="100" y="50" width="100" height="40" as="geometry" />
        </mxCell>
        <mxCell id="jKazzLGA4t1OIknXhIyh-35" value="Name" style="whiteSpace=wrap;html=1;align=center;" vertex="1" parent="jKazzLGA4t1OIknXhIyh-55">
          <mxGeometry x="200" y="50" width="100" height="40" as="geometry" />
        </mxCell>
        <mxCell id="jKazzLGA4t1OIknXhIyh-36" value="DoB" style="whiteSpace=wrap;html=1;align=center;" vertex="1" parent="jKazzLGA4t1OIknXhIyh-55">
          <mxGeometry x="300" y="50" width="100" height="40" as="geometry" />
        </mxCell>
        <mxCell id="jKazzLGA4t1OIknXhIyh-37" value="Gender" style="whiteSpace=wrap;html=1;align=center;" vertex="1" parent="jKazzLGA4t1OIknXhIyh-55">
          <mxGeometry x="400" y="50" width="100" height="40" as="geometry" />
        </mxCell>
        <mxCell id="jKazzLGA4t1OIknXhIyh-38" value="&lt;b&gt;&lt;font style=&quot;font-size: 14px;&quot;&gt;Driver&lt;/font&gt;&lt;/b&gt;" style="text;html=1;align=center;verticalAlign=middle;resizable=0;points=[];autosize=1;strokeColor=none;fillColor=none;" vertex="1" parent="jKazzLGA4t1OIknXhIyh-55">
          <mxGeometry y="20" width="60" height="30" as="geometry" />
        </mxCell>
        <mxCell id="jKazzLGA4t1OIknXhIyh-56" value="" style="group" vertex="1" connectable="0" parent="1">
          <mxGeometry x="-750" y="1180" width="610" height="70" as="geometry" />
        </mxCell>
        <mxCell id="EUw8EhEZ4q8oBvskHvC--5" style="edgeStyle=orthogonalEdgeStyle;rounded=0;orthogonalLoop=1;jettySize=auto;html=1;exitX=0;exitY=0.5;exitDx=0;exitDy=0;" edge="1" parent="jKazzLGA4t1OIknXhIyh-56" source="jKazzLGA4t1OIknXhIyh-44">
          <mxGeometry relative="1" as="geometry">
            <mxPoint x="10.235294117647072" y="50" as="targetPoint" />
          </mxGeometry>
        </mxCell>
        <mxCell id="jKazzLGA4t1OIknXhIyh-44" value="&lt;b&gt;&lt;u&gt;SID&lt;/u&gt;&lt;/b&gt;" style="whiteSpace=wrap;html=1;align=center;" vertex="1" parent="jKazzLGA4t1OIknXhIyh-56">
          <mxGeometry x="10" y="30" width="100" height="40" as="geometry" />
        </mxCell>
        <mxCell id="jKazzLGA4t1OIknXhIyh-45" value="TDate" style="whiteSpace=wrap;html=1;align=center;" vertex="1" parent="jKazzLGA4t1OIknXhIyh-56">
          <mxGeometry x="110" y="30" width="100" height="40" as="geometry" />
        </mxCell>
        <mxCell id="jKazzLGA4t1OIknXhIyh-46" value="StartTime" style="whiteSpace=wrap;html=1;align=center;" vertex="1" parent="jKazzLGA4t1OIknXhIyh-56">
          <mxGeometry x="210" y="30" width="100" height="40" as="geometry" />
        </mxCell>
        <mxCell id="jKazzLGA4t1OIknXhIyh-47" value="EndTime" style="whiteSpace=wrap;html=1;align=center;" vertex="1" parent="jKazzLGA4t1OIknXhIyh-56">
          <mxGeometry x="310" y="30" width="100" height="40" as="geometry" />
        </mxCell>
        <mxCell id="jKazzLGA4t1OIknXhIyh-48" value="PlateNo" style="whiteSpace=wrap;html=1;align=center;" vertex="1" parent="jKazzLGA4t1OIknXhIyh-56">
          <mxGeometry x="410" y="30" width="100" height="40" as="geometry" />
        </mxCell>
        <mxCell id="jKazzLGA4t1OIknXhIyh-49" value="DID" style="whiteSpace=wrap;html=1;align=center;" vertex="1" parent="jKazzLGA4t1OIknXhIyh-56">
          <mxGeometry x="510" y="30" width="100" height="40" as="geometry" />
        </mxCell>
        <mxCell id="jKazzLGA4t1OIknXhIyh-50" value="&lt;font style=&quot;font-size: 14px;&quot;&gt;&lt;b&gt;Bustrip&lt;/b&gt;&lt;/font&gt;" style="text;html=1;align=center;verticalAlign=middle;resizable=0;points=[];autosize=1;strokeColor=none;fillColor=none;" vertex="1" parent="jKazzLGA4t1OIknXhIyh-56">
          <mxGeometry width="70" height="30" as="geometry" />
        </mxCell>
        <mxCell id="jKazzLGA4t1OIknXhIyh-58" style="edgeStyle=orthogonalEdgeStyle;rounded=0;orthogonalLoop=1;jettySize=auto;html=1;entryX=0.5;entryY=1;entryDx=0;entryDy=0;" edge="1" parent="1" source="jKazzLGA4t1OIknXhIyh-1" target="jKazzLGA4t1OIknXhIyh-32">
          <mxGeometry relative="1" as="geometry">
            <mxPoint x="313" y="1370" as="targetPoint" />
            <Array as="points">
              <mxPoint x="-707" y="1160" />
              <mxPoint x="110" y="1160" />
            </Array>
          </mxGeometry>
        </mxCell>
        <mxCell id="jKazzLGA4t1OIknXhIyh-60" style="edgeStyle=orthogonalEdgeStyle;rounded=0;orthogonalLoop=1;jettySize=auto;html=1;entryX=0.5;entryY=1;entryDx=0;entryDy=0;" edge="1" parent="1" source="jKazzLGA4t1OIknXhIyh-39" target="jKazzLGA4t1OIknXhIyh-48">
          <mxGeometry relative="1" as="geometry">
            <Array as="points">
              <mxPoint x="-707" y="1370" />
              <mxPoint x="-290" y="1370" />
            </Array>
            <mxPoint x="-290" y="1280" as="targetPoint" />
          </mxGeometry>
        </mxCell>
        <mxCell id="jKazzLGA4t1OIknXhIyh-61" style="edgeStyle=orthogonalEdgeStyle;rounded=0;orthogonalLoop=1;jettySize=auto;html=1;entryX=0.5;entryY=1;entryDx=0;entryDy=0;" edge="1" parent="1" source="jKazzLGA4t1OIknXhIyh-33" target="jKazzLGA4t1OIknXhIyh-49">
          <mxGeometry relative="1" as="geometry">
            <Array as="points">
              <mxPoint x="-707" y="1510" />
              <mxPoint x="-190" y="1510" />
            </Array>
          </mxGeometry>
        </mxCell>
        <mxCell id="t45wqodUu4C3QuuON0F5-1" value="" style="group" connectable="0" vertex="1" parent="1">
          <mxGeometry x="-760" y="-280" width="300" height="70" as="geometry" />
        </mxCell>
        <mxCell id="t45wqodUu4C3QuuON0F5-2" value="&lt;b&gt;&lt;u&gt;StopID&lt;/u&gt;&lt;/b&gt;" style="whiteSpace=wrap;html=1;align=center;" vertex="1" parent="t45wqodUu4C3QuuON0F5-1">
          <mxGeometry x="20" y="30" width="100" height="40" as="geometry" />
        </mxCell>
        <mxCell id="t45wqodUu4C3QuuON0F5-5" value="&lt;b&gt;&lt;font style=&quot;font-size: 14px;&quot;&gt;Stop&lt;/font&gt;&lt;/b&gt;" style="text;html=1;align=center;verticalAlign=middle;resizable=0;points=[];autosize=1;strokeColor=none;fillColor=none;" vertex="1" parent="t45wqodUu4C3QuuON0F5-1">
          <mxGeometry width="50" height="30" as="geometry" />
        </mxCell>
        <mxCell id="t45wqodUu4C3QuuON0F5-8" value="Address" style="whiteSpace=wrap;html=1;align=center;" vertex="1" parent="t45wqodUu4C3QuuON0F5-1">
          <mxGeometry x="120" y="30" width="100" height="40" as="geometry" />
        </mxCell>
        <mxCell id="t45wqodUu4C3QuuON0F5-9" value="LocationDes" style="whiteSpace=wrap;html=1;align=center;" vertex="1" parent="t45wqodUu4C3QuuON0F5-1">
          <mxGeometry x="220" y="30" width="100" height="40" as="geometry" />
        </mxCell>
        <mxCell id="t45wqodUu4C3QuuON0F5-11" value="" style="group" connectable="0" vertex="1" parent="1">
          <mxGeometry x="-740" y="-180" width="300" height="70" as="geometry" />
        </mxCell>
        <mxCell id="t45wqodUu4C3QuuON0F5-12" value="&lt;b&gt;&lt;u&gt;StopID&lt;/u&gt;&lt;/b&gt;" style="whiteSpace=wrap;html=1;align=center;" vertex="1" parent="t45wqodUu4C3QuuON0F5-11">
          <mxGeometry y="30" width="100" height="40" as="geometry" />
        </mxCell>
        <mxCell id="t45wqodUu4C3QuuON0F5-13" value="SID" style="whiteSpace=wrap;html=1;align=center;" vertex="1" parent="t45wqodUu4C3QuuON0F5-11">
          <mxGeometry x="100" y="30" width="100" height="40" as="geometry" />
        </mxCell>
        <mxCell id="t45wqodUu4C3QuuON0F5-14" value="StopOrder" style="whiteSpace=wrap;html=1;align=center;" vertex="1" parent="t45wqodUu4C3QuuON0F5-11">
          <mxGeometry x="200" y="30" width="100" height="40" as="geometry" />
        </mxCell>
        <mxCell id="t45wqodUu4C3QuuON0F5-15" value="&lt;b&gt;&lt;font style=&quot;font-size: 14px;&quot;&gt;StopRank&lt;/font&gt;&lt;/b&gt;" style="text;html=1;align=center;verticalAlign=middle;resizable=0;points=[];autosize=1;strokeColor=none;fillColor=none;" vertex="1" parent="t45wqodUu4C3QuuON0F5-11">
          <mxGeometry x="-20" width="90" height="30" as="geometry" />
        </mxCell>
        <mxCell id="t45wqodUu4C3QuuON0F5-16" value="" style="group" connectable="0" vertex="1" parent="1">
          <mxGeometry x="-740" y="-80" width="300" height="70" as="geometry" />
        </mxCell>
        <mxCell id="t45wqodUu4C3QuuON0F5-17" value="&lt;b&gt;&lt;u&gt;SID&lt;/u&gt;&lt;/b&gt;" style="whiteSpace=wrap;html=1;align=center;" vertex="1" parent="t45wqodUu4C3QuuON0F5-16">
          <mxGeometry y="30" width="100" height="40" as="geometry" />
        </mxCell>
        <mxCell id="t45wqodUu4C3QuuON0F5-18" value="Direction" style="whiteSpace=wrap;html=1;align=center;" vertex="1" parent="t45wqodUu4C3QuuON0F5-16">
          <mxGeometry x="100" y="30" width="100" height="40" as="geometry" />
        </mxCell>
        <mxCell id="t45wqodUu4C3QuuON0F5-19" value="IsNormal" style="whiteSpace=wrap;html=1;align=center;" vertex="1" parent="t45wqodUu4C3QuuON0F5-16">
          <mxGeometry x="200" y="30" width="100" height="40" as="geometry" />
        </mxCell>
        <mxCell id="t45wqodUu4C3QuuON0F5-20" value="&lt;b&gt;&lt;font style=&quot;font-size: 14px;&quot;&gt;Service&lt;/font&gt;&lt;/b&gt;" style="text;html=1;align=center;verticalAlign=middle;resizable=0;points=[];autosize=1;strokeColor=none;fillColor=none;" vertex="1" parent="t45wqodUu4C3QuuON0F5-16">
          <mxGeometry x="-20" width="70" height="30" as="geometry" />
        </mxCell>
        <mxCell id="t45wqodUu4C3QuuON0F5-33" value="" style="group" connectable="0" vertex="1" parent="1">
          <mxGeometry x="-740" y="190" width="330" height="70" as="geometry" />
        </mxCell>
        <mxCell id="t45wqodUu4C3QuuON0F5-34" value="&lt;b&gt;&lt;u&gt;SID&lt;/u&gt;&lt;/b&gt;" style="whiteSpace=wrap;html=1;align=center;" vertex="1" parent="t45wqodUu4C3QuuON0F5-33">
          <mxGeometry y="30" width="110" height="40" as="geometry" />
        </mxCell>
        <mxCell id="t45wqodUu4C3QuuON0F5-35" value="AvailableWeekend" style="whiteSpace=wrap;html=1;align=center;" vertex="1" parent="t45wqodUu4C3QuuON0F5-33">
          <mxGeometry x="110" y="30" width="110" height="40" as="geometry" />
        </mxCell>
        <mxCell id="t45wqodUu4C3QuuON0F5-36" value="AvailablePH" style="whiteSpace=wrap;html=1;align=center;" vertex="1" parent="t45wqodUu4C3QuuON0F5-33">
          <mxGeometry x="220" y="30" width="110" height="40" as="geometry" />
        </mxCell>
        <mxCell id="t45wqodUu4C3QuuON0F5-37" value="&lt;span style=&quot;font-size: 14px;&quot;&gt;&lt;b&gt;Express&lt;/b&gt;&lt;/span&gt;" style="text;html=1;align=center;verticalAlign=middle;resizable=0;points=[];autosize=1;strokeColor=none;fillColor=none;" vertex="1" parent="t45wqodUu4C3QuuON0F5-33">
          <mxGeometry x="-16.5" width="80" height="30" as="geometry" />
        </mxCell>
        <mxCell id="t45wqodUu4C3QuuON0F5-47" style="edgeStyle=orthogonalEdgeStyle;rounded=0;orthogonalLoop=1;jettySize=auto;html=1;entryX=0.75;entryY=1;entryDx=0;entryDy=0;startArrow=classic;startFill=1;endArrow=none;endFill=0;" edge="1" parent="1" source="t45wqodUu4C3QuuON0F5-23" target="t45wqodUu4C3QuuON0F5-17">
          <mxGeometry relative="1" as="geometry" />
        </mxCell>
        <mxCell id="t45wqodUu4C3QuuON0F5-46" value="" style="group" connectable="0" vertex="1" parent="1">
          <mxGeometry x="-740" y="100" width="300" height="70" as="geometry" />
        </mxCell>
        <mxCell id="t45wqodUu4C3QuuON0F5-27" value="&lt;b&gt;&lt;u&gt;SID&lt;/u&gt;&lt;/b&gt;" style="whiteSpace=wrap;html=1;align=center;" vertex="1" parent="t45wqodUu4C3QuuON0F5-46">
          <mxGeometry y="30" width="100" height="40" as="geometry" />
        </mxCell>
        <mxCell id="t45wqodUu4C3QuuON0F5-28" value="WeekdayFreq" style="whiteSpace=wrap;html=1;align=center;" vertex="1" parent="t45wqodUu4C3QuuON0F5-46">
          <mxGeometry x="100" y="30" width="100" height="40" as="geometry" />
        </mxCell>
        <mxCell id="t45wqodUu4C3QuuON0F5-29" value="WeekendFreq" style="whiteSpace=wrap;html=1;align=center;" vertex="1" parent="t45wqodUu4C3QuuON0F5-46">
          <mxGeometry x="200" y="30" width="100" height="40" as="geometry" />
        </mxCell>
        <mxCell id="t45wqodUu4C3QuuON0F5-30" value="&lt;b&gt;&lt;font style=&quot;font-size: 14px;&quot;&gt;Normal&lt;/font&gt;&lt;/b&gt;" style="text;html=1;align=center;verticalAlign=middle;resizable=0;points=[];autosize=1;strokeColor=none;fillColor=none;" vertex="1" parent="t45wqodUu4C3QuuON0F5-46">
          <mxGeometry width="70" height="30" as="geometry" />
        </mxCell>
        <mxCell id="t45wqodUu4C3QuuON0F5-50" style="edgeStyle=orthogonalEdgeStyle;rounded=0;orthogonalLoop=1;jettySize=auto;html=1;exitX=0;exitY=0.5;exitDx=0;exitDy=0;startArrow=classic;startFill=1;endArrow=none;endFill=0;" edge="1" parent="1" source="t45wqodUu4C3QuuON0F5-34">
          <mxGeometry relative="1" as="geometry">
            <Array as="points">
              <mxPoint x="-780" y="240" />
              <mxPoint x="-780" y="-30" />
              <mxPoint x="-740" y="-30" />
            </Array>
            <mxPoint x="-740" y="-40" as="targetPoint" />
          </mxGeometry>
        </mxCell>
        <mxCell id="t45wqodUu4C3QuuON0F5-51" style="edgeStyle=orthogonalEdgeStyle;rounded=0;orthogonalLoop=1;jettySize=auto;html=1;entryX=0.5;entryY=1;entryDx=0;entryDy=0;" edge="1" parent="1" source="t45wqodUu4C3QuuON0F5-17" target="t45wqodUu4C3QuuON0F5-13">
          <mxGeometry relative="1" as="geometry" />
        </mxCell>
        <mxCell id="t45wqodUu4C3QuuON0F5-52" style="edgeStyle=orthogonalEdgeStyle;rounded=0;orthogonalLoop=1;jettySize=auto;html=1;entryX=0;entryY=0.5;entryDx=0;entryDy=0;exitX=0;exitY=0.5;exitDx=0;exitDy=0;" edge="1" parent="1" source="t45wqodUu4C3QuuON0F5-12" target="t45wqodUu4C3QuuON0F5-2">
          <mxGeometry relative="1" as="geometry" />
        </mxCell>
        <mxCell id="t45wqodUu4C3QuuON0F5-55" value="" style="group" connectable="0" vertex="1" parent="1">
          <mxGeometry x="-760" y="20" width="220" height="70" as="geometry" />
        </mxCell>
        <mxCell id="t45wqodUu4C3QuuON0F5-22" value="&lt;b&gt;&lt;u&gt;Company&lt;/u&gt;&lt;/b&gt;" style="whiteSpace=wrap;html=1;align=center;" vertex="1" parent="t45wqodUu4C3QuuON0F5-55">
          <mxGeometry x="20" y="30" width="100" height="40" as="geometry" />
        </mxCell>
        <mxCell id="t45wqodUu4C3QuuON0F5-23" value="SID" style="whiteSpace=wrap;html=1;align=center;" vertex="1" parent="t45wqodUu4C3QuuON0F5-55">
          <mxGeometry x="120" y="30" width="100" height="40" as="geometry" />
        </mxCell>
        <mxCell id="t45wqodUu4C3QuuON0F5-25" value="&lt;b&gt;&lt;font style=&quot;font-size: 14px;&quot;&gt;Company&lt;/font&gt;&lt;/b&gt;" style="text;html=1;align=center;verticalAlign=middle;resizable=0;points=[];autosize=1;strokeColor=none;fillColor=none;" vertex="1" parent="t45wqodUu4C3QuuON0F5-55">
          <mxGeometry width="90" height="30" as="geometry" />
        </mxCell>
        <mxCell id="qvLfdOs_sPp1QoMERJEf-15" value="" style="group" connectable="0" vertex="1" parent="1">
          <mxGeometry x="-770" y="430" width="1070" height="210" as="geometry" />
        </mxCell>
        <mxCell id="OwLEOcy2ZXjR6w3MGnH5-3" style="edgeStyle=orthogonalEdgeStyle;rounded=0;orthogonalLoop=1;jettySize=auto;html=1;exitX=0;exitY=0.5;exitDx=0;exitDy=0;entryX=0;entryY=0.5;entryDx=0;entryDy=0;" edge="1" parent="qvLfdOs_sPp1QoMERJEf-15" source="qvLfdOs_sPp1QoMERJEf-16" target="qvLfdOs_sPp1QoMERJEf-2">
          <mxGeometry relative="1" as="geometry" />
        </mxCell>
        <mxCell id="qvLfdOs_sPp1QoMERJEf-16" value="&lt;b&gt;&lt;u&gt;CardID&lt;/u&gt;&lt;/b&gt;" style="whiteSpace=wrap;html=1;align=center;" vertex="1" parent="qvLfdOs_sPp1QoMERJEf-15">
          <mxGeometry x="30" y="30" width="100" height="40" as="geometry" />
        </mxCell>
        <mxCell id="qvLfdOs_sPp1QoMERJEf-17" value="Balance" style="whiteSpace=wrap;html=1;" vertex="1" parent="qvLfdOs_sPp1QoMERJEf-15">
          <mxGeometry x="130" y="30" width="100" height="40" as="geometry" />
        </mxCell>
        <mxCell id="qvLfdOs_sPp1QoMERJEf-18" value="Expiry" style="whiteSpace=wrap;html=1;" vertex="1" parent="qvLfdOs_sPp1QoMERJEf-15">
          <mxGeometry x="230" y="30" width="100" height="40" as="geometry" />
        </mxCell>
        <mxCell id="qvLfdOs_sPp1QoMERJEf-19" value="&lt;b&gt;&lt;font style=&quot;font-size: 14px;&quot;&gt;citylink&lt;/font&gt;&lt;/b&gt;" style="text;html=1;align=center;verticalAlign=middle;resizable=0;points=[];autosize=1;strokeColor=none;fillColor=none;" vertex="1" parent="qvLfdOs_sPp1QoMERJEf-15">
          <mxGeometry x="30" width="70" height="30" as="geometry" />
        </mxCell>
        <mxCell id="qvLfdOs_sPp1QoMERJEf-22" value="Type" style="whiteSpace=wrap;html=1;" vertex="1" parent="qvLfdOs_sPp1QoMERJEf-15">
          <mxGeometry x="330" y="30" width="100" height="40" as="geometry" />
        </mxCell>
        <mxCell id="hbF0eJlVNenjHxe4zCNd-1" style="edgeStyle=orthogonalEdgeStyle;rounded=0;orthogonalLoop=1;jettySize=auto;html=1;exitX=0.5;exitY=1;exitDx=0;exitDy=0;entryX=0.5;entryY=1;entryDx=0;entryDy=0;" edge="1" parent="qvLfdOs_sPp1QoMERJEf-15" source="qvLfdOs_sPp1QoMERJEf-23" target="qvLfdOs_sPp1QoMERJEf-16">
          <mxGeometry relative="1" as="geometry">
            <mxPoint x="80" y="90" as="targetPoint" />
            <Array as="points">
              <mxPoint x="480" y="100" />
              <mxPoint x="80" y="100" />
            </Array>
          </mxGeometry>
        </mxCell>
        <mxCell id="qvLfdOs_sPp1QoMERJEf-23" value="OldcardID" style="whiteSpace=wrap;html=1;" vertex="1" parent="qvLfdOs_sPp1QoMERJEf-15">
          <mxGeometry x="430" y="30" width="100" height="40" as="geometry" />
        </mxCell>
        <mxCell id="qvLfdOs_sPp1QoMERJEf-1" value="" style="group;fontFamily=Helvetica;" connectable="0" vertex="1" parent="qvLfdOs_sPp1QoMERJEf-15">
          <mxGeometry x="50" y="130" width="900" height="70" as="geometry" />
        </mxCell>
        <mxCell id="qvLfdOs_sPp1QoMERJEf-2" value="&lt;div style=&quot;color: rgb(33, 33, 33); background-color: rgb(255, 255, 254); line-height: 16px;&quot;&gt;&lt;b&gt;&lt;u&gt;CardID&lt;/u&gt;&lt;/b&gt;&lt;/div&gt;" style="whiteSpace=wrap;html=1;align=center;fontFamily=Helvetica;" vertex="1" parent="qvLfdOs_sPp1QoMERJEf-1">
          <mxGeometry x="-20" y="30" width="100" height="40" as="geometry" />
        </mxCell>
        <mxCell id="qvLfdOs_sPp1QoMERJEf-3" value="&lt;div style=&quot;color: rgb(33, 33, 33); background-color: rgb(255, 255, 254); line-height: 16px;&quot;&gt;&lt;div style=&quot;line-height: 16px;&quot;&gt;RDate&lt;/div&gt;&lt;/div&gt;" style="whiteSpace=wrap;html=1;align=center;fontFamily=Helvetica;" vertex="1" parent="qvLfdOs_sPp1QoMERJEf-1">
          <mxGeometry x="80" y="30" width="100" height="40" as="geometry" />
        </mxCell>
        <mxCell id="qvLfdOs_sPp1QoMERJEf-4" value="&lt;div style=&quot;color: rgb(33, 33, 33); background-color: rgb(255, 255, 254); line-height: 16px;&quot;&gt;&lt;div style=&quot;line-height: 16px;&quot;&gt;&lt;div style=&quot;line-height: 16px;&quot;&gt;UsePhone&lt;/div&gt;&lt;/div&gt;&lt;/div&gt;" style="whiteSpace=wrap;html=1;align=center;fontFamily=Helvetica;" vertex="1" parent="qvLfdOs_sPp1QoMERJEf-1">
          <mxGeometry x="180" y="30" width="100" height="40" as="geometry" />
        </mxCell>
        <mxCell id="qvLfdOs_sPp1QoMERJEf-5" value="&lt;div style=&quot;color: rgb(33, 33, 33); background-color: rgb(255, 255, 254); line-height: 16px;&quot;&gt;&lt;div style=&quot;line-height: 16px;&quot;&gt;&lt;div style=&quot;line-height: 16px;&quot;&gt;&lt;div style=&quot;line-height: 16px;&quot;&gt;BoardStop&lt;/div&gt;&lt;/div&gt;&lt;/div&gt;&lt;/div&gt;" style="whiteSpace=wrap;html=1;align=center;fontFamily=Helvetica;" vertex="1" parent="qvLfdOs_sPp1QoMERJEf-1">
          <mxGeometry x="280" y="30" width="100" height="40" as="geometry" />
        </mxCell>
        <mxCell id="qvLfdOs_sPp1QoMERJEf-7" value="&lt;div style=&quot;color: rgb(33, 33, 33); background-color: rgb(255, 255, 254); line-height: 16px;&quot;&gt;&lt;div style=&quot;line-height: 16px;&quot;&gt;&lt;div style=&quot;line-height: 16px;&quot;&gt;&lt;div style=&quot;line-height: 16px;&quot;&gt;&lt;div style=&quot;line-height: 16px;&quot;&gt;SID&lt;/div&gt;&lt;/div&gt;&lt;/div&gt;&lt;/div&gt;&lt;/div&gt;" style="whiteSpace=wrap;html=1;align=center;fontFamily=Helvetica;" vertex="1" parent="qvLfdOs_sPp1QoMERJEf-1">
          <mxGeometry x="380" y="30" width="100" height="40" as="geometry" />
        </mxCell>
        <mxCell id="qvLfdOs_sPp1QoMERJEf-8" value="&lt;div style=&quot;color: rgb(33, 33, 33); background-color: rgb(255, 255, 254); line-height: 16px;&quot;&gt;&lt;div style=&quot;line-height: 16px;&quot;&gt;&lt;div style=&quot;line-height: 16px;&quot;&gt;&lt;div style=&quot;line-height: 16px;&quot;&gt;&lt;div style=&quot;line-height: 16px;&quot;&gt;&lt;div style=&quot;line-height: 16px;&quot;&gt;AlightStop&lt;/div&gt;&lt;/div&gt;&lt;/div&gt;&lt;/div&gt;&lt;/div&gt;&lt;/div&gt;" style="whiteSpace=wrap;html=1;align=center;fontFamily=Helvetica;" vertex="1" parent="qvLfdOs_sPp1QoMERJEf-1">
          <mxGeometry x="480" y="30" width="100" height="40" as="geometry" />
        </mxCell>
        <mxCell id="qvLfdOs_sPp1QoMERJEf-9" value="&lt;b&gt;&lt;font style=&quot;font-size: 14px;&quot;&gt;ride&lt;/font&gt;&lt;/b&gt;" style="text;html=1;align=center;verticalAlign=middle;resizable=0;points=[];autosize=1;strokeColor=none;fillColor=none;" vertex="1" parent="qvLfdOs_sPp1QoMERJEf-1">
          <mxGeometry x="-5" width="50" height="30" as="geometry" />
        </mxCell>
        <mxCell id="qvLfdOs_sPp1QoMERJEf-10" value="&lt;div style=&quot;color: rgb(33, 33, 33); background-color: rgb(255, 255, 254); line-height: 16px;&quot;&gt;&lt;div style=&quot;line-height: 16px;&quot;&gt;&lt;div style=&quot;line-height: 16px;&quot;&gt;&lt;div style=&quot;line-height: 16px;&quot;&gt;&lt;div style=&quot;line-height: 16px;&quot;&gt;&lt;div style=&quot;line-height: 16px;&quot;&gt;&lt;div style=&quot;line-height: 16px;&quot;&gt;BoardTime&lt;/div&gt;&lt;/div&gt;&lt;/div&gt;&lt;/div&gt;&lt;/div&gt;&lt;/div&gt;&lt;/div&gt;" style="whiteSpace=wrap;html=1;align=center;fontFamily=Helvetica;" vertex="1" parent="qvLfdOs_sPp1QoMERJEf-1">
          <mxGeometry x="580" y="30" width="100" height="40" as="geometry" />
        </mxCell>
        <mxCell id="qvLfdOs_sPp1QoMERJEf-11" value="&lt;div style=&quot;color: rgb(33, 33, 33); background-color: rgb(255, 255, 254); line-height: 16px;&quot;&gt;&lt;div style=&quot;line-height: 16px;&quot;&gt;&lt;div style=&quot;line-height: 16px;&quot;&gt;&lt;div style=&quot;line-height: 16px;&quot;&gt;&lt;div style=&quot;line-height: 16px;&quot;&gt;&lt;div style=&quot;line-height: 16px;&quot;&gt;&lt;div style=&quot;line-height: 16px;&quot;&gt;&lt;div style=&quot;line-height: 16px;&quot;&gt;AlightTime&lt;/div&gt;&lt;/div&gt;&lt;/div&gt;&lt;/div&gt;&lt;/div&gt;&lt;/div&gt;&lt;/div&gt;&lt;/div&gt;" style="whiteSpace=wrap;html=1;align=center;fontFamily=Helvetica;" vertex="1" parent="qvLfdOs_sPp1QoMERJEf-1">
          <mxGeometry x="680" y="30" width="100" height="40" as="geometry" />
        </mxCell>
        <mxCell id="qvLfdOs_sPp1QoMERJEf-25" value="" style="group" connectable="0" vertex="1" parent="1">
          <mxGeometry x="-760" y="300" width="500" height="70" as="geometry" />
        </mxCell>
        <mxCell id="qvLfdOs_sPp1QoMERJEf-26" value="&lt;b&gt;&lt;u&gt;Type&lt;/u&gt;&lt;/b&gt;" style="whiteSpace=wrap;html=1;align=center;" vertex="1" parent="qvLfdOs_sPp1QoMERJEf-25">
          <mxGeometry x="20" y="50" width="100" height="40" as="geometry" />
        </mxCell>
        <mxCell id="qvLfdOs_sPp1QoMERJEf-27" value="Discount" style="whiteSpace=wrap;html=1;align=center;" vertex="1" parent="qvLfdOs_sPp1QoMERJEf-25">
          <mxGeometry x="120" y="50" width="100" height="40" as="geometry" />
        </mxCell>
        <mxCell id="qvLfdOs_sPp1QoMERJEf-28" value="MinTopAmount" style="whiteSpace=wrap;html=1;align=center;" vertex="1" parent="qvLfdOs_sPp1QoMERJEf-25">
          <mxGeometry x="220" y="50" width="100" height="40" as="geometry" />
        </mxCell>
        <mxCell id="qvLfdOs_sPp1QoMERJEf-29" value="Description" style="whiteSpace=wrap;html=1;align=center;" vertex="1" parent="qvLfdOs_sPp1QoMERJEf-25">
          <mxGeometry x="320" y="50" width="100" height="40" as="geometry" />
        </mxCell>
        <mxCell id="qvLfdOs_sPp1QoMERJEf-31" value="&lt;b&gt;&lt;font style=&quot;font-size: 14px;&quot;&gt;cardtype&lt;/font&gt;&lt;/b&gt;" style="text;html=1;align=center;verticalAlign=middle;resizable=0;points=[];autosize=1;strokeColor=none;fillColor=none;" vertex="1" parent="qvLfdOs_sPp1QoMERJEf-25">
          <mxGeometry x="10" y="20" width="80" height="30" as="geometry" />
        </mxCell>
        <mxCell id="qvLfdOs_sPp1QoMERJEf-34" value="" style="group" connectable="0" vertex="1" parent="1">
          <mxGeometry x="-800" y="720" width="500" height="70" as="geometry" />
        </mxCell>
        <mxCell id="qvLfdOs_sPp1QoMERJEf-35" value="fromstop" style="whiteSpace=wrap;html=1;align=center;" vertex="1" parent="qvLfdOs_sPp1QoMERJEf-34">
          <mxGeometry x="60" y="50" width="100" height="40" as="geometry" />
        </mxCell>
        <mxCell id="qvLfdOs_sPp1QoMERJEf-36" value="tostop" style="whiteSpace=wrap;html=1;align=center;" vertex="1" parent="qvLfdOs_sPp1QoMERJEf-34">
          <mxGeometry x="160" y="50" width="100" height="40" as="geometry" />
        </mxCell>
        <mxCell id="qvLfdOs_sPp1QoMERJEf-37" value="basefree" style="whiteSpace=wrap;html=1;align=center;" vertex="1" parent="qvLfdOs_sPp1QoMERJEf-34">
          <mxGeometry x="260" y="50" width="100" height="40" as="geometry" />
        </mxCell>
        <mxCell id="qvLfdOs_sPp1QoMERJEf-40" value="&lt;b&gt;&lt;font style=&quot;font-size: 14px;&quot;&gt;stoppair&lt;/font&gt;&lt;/b&gt;" style="text;html=1;align=center;verticalAlign=middle;resizable=0;points=[];autosize=1;strokeColor=none;fillColor=none;" vertex="1" parent="qvLfdOs_sPp1QoMERJEf-34">
          <mxGeometry x="50" y="20" width="80" height="30" as="geometry" />
        </mxCell>
        <mxCell id="qvLfdOs_sPp1QoMERJEf-54" style="edgeStyle=orthogonalEdgeStyle;rounded=0;orthogonalLoop=1;jettySize=auto;html=1;exitX=0.75;exitY=0;exitDx=0;exitDy=0;" edge="1" parent="1" source="qvLfdOs_sPp1QoMERJEf-35" target="qvLfdOs_sPp1QoMERJEf-5">
          <mxGeometry relative="1" as="geometry">
            <Array as="points">
              <mxPoint x="-670" y="770" />
              <mxPoint x="-670" y="720" />
              <mxPoint x="-410" y="720" />
            </Array>
          </mxGeometry>
        </mxCell>
        <mxCell id="qvLfdOs_sPp1QoMERJEf-55" style="edgeStyle=orthogonalEdgeStyle;rounded=0;orthogonalLoop=1;jettySize=auto;html=1;exitX=0.5;exitY=0;exitDx=0;exitDy=0;" edge="1" parent="1" source="qvLfdOs_sPp1QoMERJEf-36" target="qvLfdOs_sPp1QoMERJEf-8">
          <mxGeometry relative="1" as="geometry">
            <Array as="points">
              <mxPoint x="-590" y="740" />
              <mxPoint x="-210" y="740" />
            </Array>
          </mxGeometry>
        </mxCell>
        <mxCell id="EUw8EhEZ4q8oBvskHvC--2" style="edgeStyle=orthogonalEdgeStyle;rounded=0;orthogonalLoop=1;jettySize=auto;html=1;exitX=0;exitY=0.25;exitDx=0;exitDy=0;entryX=0;entryY=0.5;entryDx=0;entryDy=0;" edge="1" parent="1" source="t45wqodUu4C3QuuON0F5-17" target="t45wqodUu4C3QuuON0F5-27">
          <mxGeometry relative="1" as="geometry">
            <Array as="points">
              <mxPoint x="-740" y="-20" />
              <mxPoint x="-760" y="-20" />
              <mxPoint x="-760" y="150" />
            </Array>
          </mxGeometry>
        </mxCell>
        <mxCell id="EUw8EhEZ4q8oBvskHvC--3" style="edgeStyle=orthogonalEdgeStyle;rounded=0;orthogonalLoop=1;jettySize=auto;html=1;exitX=0;exitY=0.25;exitDx=0;exitDy=0;" edge="1" parent="1" source="t45wqodUu4C3QuuON0F5-17">
          <mxGeometry relative="1" as="geometry">
            <mxPoint x="-740" y="1230" as="targetPoint" />
            <Array as="points">
              <mxPoint x="-740" y="-50" />
              <mxPoint x="-850" y="-50" />
              <mxPoint x="-850" y="1230" />
            </Array>
          </mxGeometry>
        </mxCell>
        <mxCell id="hbF0eJlVNenjHxe4zCNd-3" style="edgeStyle=orthogonalEdgeStyle;rounded=0;orthogonalLoop=1;jettySize=auto;html=1;exitX=0.5;exitY=0;exitDx=0;exitDy=0;" edge="1" parent="1" source="t45wqodUu4C3QuuON0F5-2">
          <mxGeometry relative="1" as="geometry">
            <mxPoint x="-710" y="810" as="targetPoint" />
            <mxPoint x="-640" y="-250" as="sourcePoint" />
            <Array as="points">
              <mxPoint x="-690" y="-270" />
              <mxPoint x="110" y="-270" />
              <mxPoint x="110" y="860" />
              <mxPoint x="-710" y="860" />
            </Array>
          </mxGeometry>
        </mxCell>
        <mxCell id="OwLEOcy2ZXjR6w3MGnH5-2" style="edgeStyle=orthogonalEdgeStyle;rounded=0;orthogonalLoop=1;jettySize=auto;html=1;exitX=0.75;exitY=1;exitDx=0;exitDy=0;entryX=0.5;entryY=0;entryDx=0;entryDy=0;" edge="1" parent="1" source="qvLfdOs_sPp1QoMERJEf-26" target="qvLfdOs_sPp1QoMERJEf-22">
          <mxGeometry relative="1" as="geometry" />
        </mxCell>
        <mxCell id="OwLEOcy2ZXjR6w3MGnH5-4" style="edgeStyle=orthogonalEdgeStyle;rounded=0;orthogonalLoop=1;jettySize=auto;html=1;exitX=0;exitY=0.25;exitDx=0;exitDy=0;entryX=0.5;entryY=1;entryDx=0;entryDy=0;" edge="1" parent="1" source="t45wqodUu4C3QuuON0F5-17" target="qvLfdOs_sPp1QoMERJEf-7">
          <mxGeometry relative="1" as="geometry">
            <mxPoint x="-840" y="410" as="targetPoint" />
            <Array as="points">
              <mxPoint x="-810" y="-40" />
              <mxPoint x="-810" y="670" />
              <mxPoint x="-290" y="670" />
            </Array>
          </mxGeometry>
        </mxCell>
        <mxCell id="n3YuYxSiPOgbkO1CuZM5-4" style="edgeStyle=orthogonalEdgeStyle;rounded=0;orthogonalLoop=1;jettySize=auto;html=1;exitX=0.75;exitY=0;exitDx=0;exitDy=0;entryX=0.5;entryY=1;entryDx=0;entryDy=0;" edge="1" parent="1" source="jKazzLGA4t1OIknXhIyh-44" target="jKazzLGA4t1OIknXhIyh-28">
          <mxGeometry relative="1" as="geometry">
            <Array as="points">
              <mxPoint x="-665" y="1130" />
              <mxPoint x="-190" y="1130" />
            </Array>
          </mxGeometry>
        </mxCell>
        <mxCell id="ndoX39C4dO5G3DGLpw36-1" style="edgeStyle=orthogonalEdgeStyle;rounded=0;orthogonalLoop=1;jettySize=auto;html=1;exitX=0.75;exitY=0;exitDx=0;exitDy=0;entryX=0.75;entryY=1;entryDx=0;entryDy=0;" edge="1" parent="1" source="t45wqodUu4C3QuuON0F5-2" target="qvLfdOs_sPp1QoMERJEf-36">
          <mxGeometry relative="1" as="geometry">
            <mxPoint x="-570" y="760" as="targetPoint" />
            <Array as="points">
              <mxPoint x="-665" y="-260" />
              <mxPoint x="80" y="-260" />
              <mxPoint x="80" y="840" />
              <mxPoint x="-565" y="840" />
            </Array>
          </mxGeometry>
        </mxCell>
      </root>
    </mxGraphModel>
  </diagram>
</mxfile>
